<!-- icon666.com - MILLIONS vector ICONS FREE --><svg id="Capa_1" enable-background="new 0 0 64 64" viewBox="0 0 64 64" xmlns="http://www.w3.org/2000/svg"><path d="m45.333 36.248c-.083-.102-.187-.19-.312-.254-.018-.01-.039-.008-.058-.017-.733-.526-1.499-1.008-2.307-1.429 2.683-2.712 4.344-6.436 4.344-10.542v-7.004c0-8.271-6.729-15-15-15s-15 6.729-15 15v7.004c0 4.112 1.665 7.841 4.354 10.553-.873.454-1.722.946-2.505 1.516-8.141 5.931-9.849 16.828-9.849 24.925v1h46v-1c0-11.441-3.404-20.026-9.667-24.752zm-15.756 2.544-5.507 4.819-3.324-6.381c.715-.468 1.464-.89 2.251-1.255 1.897 1.43 4.137 2.417 6.58 2.817zm5.419 3.154c.001.018.004.036.004.054 0 1.654-1.346 3-3 3s-3-1.346-3-3c0-.016.003-.032.003-.048l2.998-2.622zm-7.745 1.539c.312.993.916 1.848 1.723 2.468l-1.305 4.567-2.648-5.084zm3.549 3.353c.387.096.784.162 1.2.162.415 0 .813-.066 1.199-.162l1.788 6.26-2.987 5.737-2.988-5.737zm5.531 3.68-1.304-4.566c.807-.619 1.41-1.474 1.722-2.465l2.229 1.948zm3.597-6.909-3.224-2.817c-.026-.029-.056-.059-.086-.085l-2.192-1.916c2.442-.4 4.682-1.387 6.579-2.817.801.371 1.549.789 2.25 1.246zm-20.928-26.607c0-7.168 5.832-13 13-13s13 5.832 13 13v7.004c0 7.16-5.819 12.985-12.975 12.999-.017 0-.034 0-.051 0-7.156-.015-12.974-5.839-12.974-12.999zm.114 21.424 11.238 21.574h-19.343c.131-7.17 1.739-16.242 8.105-21.574zm14.534 21.574 11.237-21.581c6.29 5.236 7.973 14.144 8.106 21.581z" fill="#000000" style="fill: rgb(255, 255, 255);"></path></svg>