<!-- icon666.com - MILLIONS vector ICONS FREE --><svg id="Layer_1" viewBox="0 0 520 520" xmlns="http://www.w3.org/2000/svg" xmlns:xlink="http://www.w3.org/1999/xlink" data-name="Layer 1"><linearGradient id="linear-gradient" gradientUnits="userSpaceOnUse" x1="39.233" x2="527.777" y1="548.13" y2="59.586"><stop offset="0" stop-color="#4158d0"></stop><stop offset="1" stop-color="#c850c0"></stop></linearGradient><linearGradient id="linear-gradient-2" x1="-2.035" x2="486.508" xlink:href="#linear-gradient" y1="506.862" y2="18.318"></linearGradient><path d="m289.409 16.2a41.591 41.591 0 0 0 -71.015 29.41v184.064h-161.5a30.361 30.361 0 0 0 -30.326 30.326v22.568a7.756 7.756 0 0 0 7.758 7.758h17.522l7.069 49.75 8.007 56.42s0 .008 0 .012l4.338 30.107 6.268 44.011a53.106 53.106 0 0 0 52.37 45.374h260.2a53.106 53.106 0 0 0 52.372-45.386l6.124-43 4.482-31.107s0-.008 0-.012l8.007-56.42 7.069-49.75h17.522a7.756 7.756 0 0 0 7.758-7.758v-22.567a30.361 30.361 0 0 0 -30.326-30.326h-161.5v-184.064a41.365 41.365 0 0 0 -12.199-29.41zm-55.5 29.413a26.091 26.091 0 0 1 52.182 0v203.103a26.091 26.091 0 1 1 -52.182 0v-203.106zm196.636 398.451h-56.111l5.522-40.9h56.449l-2.947 20.69zm-344.145-21.177-2.809-19.724h56.45l5.522 40.9h-56.108zm51.545-35.239h-56.561l-5.826-40.906h56.867zm17.755 15.515h52.038l5.522 40.9h-52.035zm135.375 40.9h-62.153l-5.522-40.9h73.2zm-75.72 15.516 5.523 40.905h-52.036l-5.522-40.904zm15.659 0h57.966l-5.523 40.905h-46.917zm73.625 0h52.041l-5.523 40.905h-52.038zm2.1-15.516 5.522-40.9h52.039l-5.522 40.9zm80.836-97.322h56.868l-5.826 40.906h-56.566zm59.079-15.515h-56.986l5.522-40.9h57.287zm-80.259 56.421h-212.787l-13.139-97.322h43.44a85.028 85.028 0 0 0 14.75 19.731 86.718 86.718 0 0 0 137.417-19.731h43.457zm-241.587-97.321 5.522 40.9h-56.982l-5.825-40.9zm-31.914 178.136-1.265-8.882h56.032l5.523 40.905h-23.284a37.515 37.515 0 0 1 -37.006-32.023zm334.212-.015a37.515 37.515 0 0 1 -37.006 32.038h-23.283l5.522-40.905h56.03zm36-223.258a14.828 14.828 0 0 1 14.811 14.811v14.811h-146.606a7.761 7.761 0 0 0 -7.016 4.443 71.187 71.187 0 0 1 -114.666 19.833 69.361 69.361 0 0 1 -13.909-19.787 7.757 7.757 0 0 0 -7.031-4.484h-146.606v-14.816a14.828 14.828 0 0 1 14.811-14.811h161.5v3.527a41.606 41.606 0 1 0 83.212 0v-3.527z" fill="url(#linear-gradient)"></path><path d="m253.618 251.17a8.144 8.144 0 0 0 5.508 2.326 8.05 8.05 0 0 0 5.507-2.326 7.8 7.8 0 0 0 2.25-5.508 7.978 7.978 0 0 0 -2.25-5.431 7.762 7.762 0 0 0 -11.015 10.939z" fill="url(#linear-gradient-2)"></path></svg>