<!-- icon666.com - MILLIONS vector ICONS FREE --><svg xmlns="http://www.w3.org/2000/svg" id="outline" viewBox="0 0 64 64"><path d="M36.852,21.559a1,1,0,0,0,.714.321h.02a1,1,0,0,0,.707-.293l6.881-6.88a1,1,0,0,0-1.414-1.414l-6.146,6.145-2.88-3.117a1,1,0,1,0-1.468,1.358Z"></path><path d="M38,32A13,13,0,1,0,25,19,13.015,13.015,0,0,0,38,32ZM38,8A11,11,0,1,1,27,19,11.013,11.013,0,0,1,38,8Z"></path><path d="M63.8,24.3a1,1,0,0,0-.8-.4H53.027a1,1,0,0,0,0,2h8.62L58.858,35h-10.1l1.089-4.788a1,1,0,1,0-1.951-.443L46.7,35H39v-.968a1,1,0,0,0-2,0V35H29.3l-1.189-5.231a1,1,0,0,0-1.951.443L27.247,35H18L15.12,25.9h7.949a1,1,0,1,0,0-2h-8.58L10.953,12.7A1,1,0,0,0,10,12H1a1,1,0,0,0,0,2H9.268L21.047,51.3A1,1,0,0,0,22,52h2.155a3.949,3.949,0,0,0-.556,2,4,4,0,0,0,8,0,3.95,3.95,0,0,0-.557-2H46.556A3.959,3.959,0,0,0,46,54a4,4,0,0,0,8,0,3.959,3.959,0,0,0-.556-2H55a1,1,0,0,0,0-2H22.732L22.1,48H56.226a1,1,0,0,0,.956-.707l6.774-22.107A1,1,0,0,0,63.8,24.3ZM29.6,54a2,2,0,1,1-2-2A2,2,0,0,1,29.6,54ZM52,54a2,2,0,1,1-2-2A2,2,0,0,1,52,54ZM46.247,37,44.2,46H39V37ZM37,37v9H31.8l-2.046-9ZM18.627,37H27.7l2.046,9H21.47Zm36.859,9H46.253L48.3,37h9.946Z"></path></svg>