<!-- icon666.com - MILLIONS vector ICONS FREE --><svg id="Layer_1" enable-background="new 0 0 512 512" viewBox="0 0 512 512" xmlns="http://www.w3.org/2000/svg"><g><g><path d="m219.8 108.9h-24v-38.7c0-15.6 12.7-28.2 28.2-28.2h64c15.6 0 28.2 12.7 28.2 28.2v37.7h-24v-37.7c0-2.3-1.9-4.2-4.2-4.2h-64c-2.3 0-4.2 1.9-4.2 4.2z" fill="#0bdc49" style="fill: rgb(253, 133, 255);"></path></g><g><path d="m174.9 470c-25.1 0-46.4-18-49-41.6l-34.4-273.5h328.7l-28.2 272.7c-2.6 24.6-25.1 43.2-51.3 42.3h-164.1c-.6.1-1.1.1-1.7.1zm-56.2-291.1 31.1 246.7c1.3 11.9 12.8 20.8 26.2 20.3h.4 164.8.2c13.7.5 25.5-8.7 26.8-20.9l25.4-246.2h-274.9z" fill="#6040ec" style="fill: rgb(143, 117, 255);"></path></g><g><path d="m424.5 124.4h-337c-6.6 0-12-5.4-12-12s5.4-12 12-12h337c6.6 0 12 5.4 12 12s-5.4 12-12 12z" fill="#6040ec" style="fill: rgb(143, 117, 255);"></path></g><g><g><g><path d="m199.6 385.5c-5.9 0-10.8-4.7-11-10.6l-4.5-127.3c-.2-6.1 4.5-11.2 10.6-11.4s11.2 4.5 11.4 10.6l4.5 127.3c.2 6.1-4.5 11.2-10.6 11.4-.1 0-.3 0-.4 0z" fill="#0bdc49" style="fill: rgb(253, 133, 255);"></path></g><g><path d="m312.4 385.7c-.1 0-.3 0-.4 0-6.1-.2-10.8-5.3-10.6-11.4l4.5-127.3c.2-6.1 5.3-10.8 11.4-10.6s10.8 5.3 10.6 11.4l-4.5 127.3c-.2 5.9-5.1 10.6-11 10.6z" fill="#0bdc49" style="fill: rgb(253, 133, 255);"></path></g></g><g><path d="m256 385.5c-6.1 0-11-4.9-11-11v-127.4c0-6.1 4.9-11 11-11s11 4.9 11 11v127.3c0 6.2-4.9 11.1-11 11.1z" fill="#0bdc49" style="fill: rgb(253, 133, 255);"></path></g></g></g></svg>