<!-- icon666.com - MILLIONS vector ICONS FREE --><svg viewBox="0 0 32 32" xmlns="http://www.w3.org/2000/svg" xmlns:xlink="http://www.w3.org/1999/xlink"><linearGradient id="linear-gradient" gradientUnits="userSpaceOnUse" x1="25.707" x2="6.293" y1="25.707" y2="6.293"><stop offset="0" stop-color="#60f"></stop><stop offset=".124" stop-color="#6f03fc"></stop><stop offset=".331" stop-color="#890cf3"></stop><stop offset=".595" stop-color="#b219e6"></stop><stop offset=".902" stop-color="#eb2cd3"></stop><stop offset="1" stop-color="#f3c"></stop></linearGradient><g id="_24_-_edit" data-name="24 - edit"><path d="m25 26h-18a1 1 0 0 1 -1-1v-18a1 1 0 0 1 1-1h9a1 1 0 0 1 0 2h-8v16h16v-8a1 1 0 0 1 2 0v9a1 1 0 0 1 -1 1zm-7.293-10.293 8-8a1 1 0 1 0 -1.414-1.414l-8 8a1 1 0 1 0 1.414 1.414z" fill="url(#linear-gradient)"></path></g></svg>