<!-- icon666.com - MILLIONS vector ICONS FREE --><svg id="Capa_1" enable-background="new 0 0 511.5 511.5" viewBox="0 0 511.5 511.5" xmlns="http://www.w3.org/2000/svg" xmlns:xlink="http://www.w3.org/1999/xlink"><linearGradient id="SVGID_1_" gradientUnits="userSpaceOnUse" x1="382.608" x2="382.608" y1="60" y2="464"><stop offset=".00000083866" stop-color="#75d1f4"></stop><stop offset="1" stop-color="#b3fff3"></stop></linearGradient><linearGradient id="SVGID_00000041274348538271565940000017260779217571759767_" gradientUnits="userSpaceOnUse" x1="255.75" x2="255.75" y1="0" y2="511.5"><stop offset="0" stop-color="#004ea6"></stop><stop offset="1" stop-color="#ca42b2"></stop></linearGradient><g><g id="Filled_00000075137378004996197750000002376652625692811930_"><g fill="#fff"><path d="m7.608 202h455v302h-455z"></path><circle cx="95.608" cy="287" r="40"></circle><path d="m462.608 399-101-105-76.197 70.803-44.803-44.803-199 184h421z"></path><path d="m502.608 0v40c0 11.046-8.954 20-20 20h-200c-11.046 0-20-8.954-20-20v-40z"></path></g><path d="m482.608 60-20 50 40 90c-63.905 74.142-120 189-120 264 0-75-56.095-189.858-120-264l40-90-20-50z" fill="url(#SVGID_1_)"></path><circle cx="382.608" cy="214" fill="#fff" r="40"></circle></g><path d="m470.108 511.5h-470v-317h256.737l37.624-84.653-17.143-42.855c-12.646-2.471-22.218-13.635-22.218-26.992v-40h15v40c0 6.893 5.607 12.5 12.5 12.5h200c6.893 0 12.5-5.607 12.5-12.5v-40h15v40c0 13.357-9.572 24.521-22.219 26.991l-17.143 42.855 40.646 91.45-3.104 3.6c-13.215 15.332-26.075 32.377-38.181 50.509v256.095zm-315.41-15h300.41v-94.479l-40.528-42.141c-15.877 39.461-24.472 75.765-24.472 104.119h-15c0-34.265-12.55-80.135-35.337-129.161-1.11-2.39-2.239-4.775-3.388-7.157zm-93.931 0h71.895l141.947-131.894-34.204-34.203zm-45.659 0h23.564l202.14-186.903 44.792 44.792 43.805-40.702c-19.493-37.843-43.305-74.071-68.567-104.187h-245.734zm256.272-297.771c31.127 36.873 60.142 82.775 81.993 129.788 8.729 18.782 16.016 37.181 21.734 54.745v-122.354c-22.641-3.605-40-23.268-40-46.908 0-26.191 21.309-47.5 47.5-47.5s47.5 21.309 47.5 47.5c0 23.641-17.359 43.303-40 46.908v122.354c5.719-17.564 13.005-35.963 21.734-54.745 21.852-47.013 50.866-92.915 81.993-129.788l-36.1-81.229h-150.252zm149.54 146.106 34.188 35.547v-101.311c-10.845 18.032-20.85 36.805-29.663 55.768-1.557 3.349-3.065 6.681-4.525 9.996zm-38.312-163.335c-17.921 0-32.5 14.579-32.5 32.5s14.579 32.5 32.5 32.5 32.5-14.579 32.5-32.5-14.579-32.5-32.5-32.5zm-74.922-79h149.844l14-35h-177.844zm-212.078 232c-26.191 0-47.5-21.309-47.5-47.5s21.309-47.5 47.5-47.5 47.5 21.309 47.5 47.5-21.309 47.5-47.5 47.5zm0-80c-17.92 0-32.5 14.579-32.5 32.5s14.58 32.5 32.5 32.5 32.5-14.579 32.5-32.5-14.58-32.5-32.5-32.5z" fill="url(#SVGID_00000041274348538271565940000017260779217571759767_)"></path></g></svg>