<!-- icon666.com - MILLIONS vector ICONS FREE --><svg id="Layer_1" enable-background="new 0 0 512 512" viewBox="0 0 512 512" xmlns="http://www.w3.org/2000/svg" xmlns:xlink="http://www.w3.org/1999/xlink"><linearGradient id="SVGID_1_" gradientUnits="userSpaceOnUse" x1="256" x2="256" y1="512" y2="0"><stop offset="0" stop-color="#12c2e9"></stop><stop offset=".5" stop-color="#c471ed"></stop><stop offset="1" stop-color="#f64f59"></stop></linearGradient><path d="m377.415 256c0 8.837-7.164 16-16 16h-89.415v89.415c0 8.837-7.164 16-16 16s-16-7.163-16-16v-89.415h-89.415c-8.836 0-16-7.163-16-16s7.164-16 16-16h89.415v-89.414c0-8.837 7.164-16 16-16s16 7.163 16 16v89.414h89.415c8.836 0 16 7.163 16 16zm134.585 0c0 141.159-114.841 256-256 256s-256-114.841-256-256 114.841-256 256-256 256 114.841 256 256zm-32 0c0-123.514-100.486-224-224-224s-224 100.486-224 224 100.486 224 224 224 224-100.486 224-224z" fill="url(#SVGID_1_)"></path></svg>