<!-- icon666.com - MILLIONS vector ICONS FREE --><svg fill="none" viewBox="0 0 16 16" xmlns="http://www.w3.org/2000/svg"><path d="m5.00002 4.49999v-.344c.021-.896.31266-1.64083.875-2.2345.56233-.59367 1.27066-.901 2.125-.922001.85433.021001 1.56266.328331 2.12498.922001.5623.59367.854 1.3385.875 2.2345v.344h2.047c.1353 0 .2473.04167.336.125s.1433.19267.164.328l.8905 9.00001c.021.146-.018.2737-.117.383s-.2213.164-.367.164h-11.90648c-.146 0-.26834-.0547-.367-.164-.09867-.1093-.13767-.237-.117-.383l.8905-9.00001c.021-.13533.07566-.24467.164-.328.08833-.08333.20033-.125.336-.125h2.047zm1 0h3.99998v-.344c-.01032-.61467-.20565-1.12517-.58598-1.5315-.38034-.40633-.85167-.61467-1.414-.625-.56267.01033-1.034.21867-1.414.625s-.57534.91683-.586 1.5315zm-1 1h-1.594l-.797 8.00001h10.78148l-.797-8.00001h-1.594v1.5c0 .146-.0468.26583-.1405.3595s-.2135.1405-.3595.1405-.2658-.04683-.3595-.1405-.14048-.2135-.14048-.3595v-1.5h-4v1.5c0 .146-.04684.26583-.1405.3595-.09367.09367-.2135.1405-.3595.1405s-.26584-.04683-.3595-.1405c-.09367-.09367-.1405-.2135-.1405-.3595v-1.5z" fill="rgb(0,0,0)" fill-opacity=".96" style="fill: rgb(255, 255, 255);"></path></svg>