<!-- icon666.com - MILLIONS vector ICONS FREE --><svg version="1.1" id="Capa_1" xmlns="http://www.w3.org/2000/svg" xmlns:xlink="http://www.w3.org/1999/xlink" x="0px" y="0px" viewBox="0 0 512 512" style="enable-background:new 0 0 512 512;" xml:space="preserve"><g><g><path d="M294.646,117.242c4.98-7.408,7.89-16.317,7.89-25.895c0-25.66-20.876-46.537-46.537-46.537s-46.537,20.877-46.537,46.537 c0,9.577,2.911,18.487,7.89,25.895c-19.754,11.71-33.033,33.238-33.033,57.819v43.464h143.358v-43.464h0.002 C327.679,150.48,314.4,128.952,294.646,117.242z M256,74.81c9.119,0,16.537,7.419,16.537,16.537s-7.418,16.537-16.537,16.537 s-16.537-7.419-16.537-16.537C239.463,82.229,246.881,74.81,256,74.81z M297.68,188.524L297.68,188.524h-83.359V175.06 c0-20.499,16.677-37.177,37.177-37.177h9.005c20.5,0,37.177,16.678,37.177,37.177V188.524z" fill="#000000" style="fill: rgb(255, 255, 255);"></path></g></g><g><g><path d="M67,0v512h378V0H67z M415,482H97V30h318V482z" fill="#000000" style="fill: rgb(255, 255, 255);"></path></g></g><g><g><rect x="215.32" y="270.72" width="165.01" height="30" fill="#000000" style="fill: rgb(255, 255, 255);"></rect></g></g><g><g><rect x="215.32" y="342.73" width="165.01" height="30" fill="#000000" style="fill: rgb(255, 255, 255);"></rect></g></g><g><g><rect x="215.32" y="414.73" width="165.01" height="30" fill="#000000" style="fill: rgb(255, 255, 255);"></rect></g></g><g><g><polygon points="190.002,233.956 163.487,259.147 152.032,248.641 131.753,270.748 163.846,300.186 210.665,255.706 " fill="#000000" style="fill: rgb(255, 255, 255);"></polygon></g></g><g><g><polygon points="190.002,307.439 163.487,332.63 152.032,322.122 131.753,344.229 163.846,373.669 210.665,329.189 " fill="#000000" style="fill: rgb(255, 255, 255);"></polygon></g></g><g><g><polygon points="190.002,380.92 163.487,406.111 152.032,395.604 131.753,417.712 163.846,447.15 210.665,402.67 " fill="#000000" style="fill: rgb(255, 255, 255);"></polygon></g></g></svg>