<!-- icon666.com - MILLIONS vector ICONS FREE --><svg viewBox="0 0 32 32" xmlns="http://www.w3.org/2000/svg"><g id="Layer_1" data-name="Layer 1"><path d="m26 3h-20a4 4 0 0 0 -4 4v18a4 4 0 0 0 4 4h1l.63-1.9a6 6 0 0 1 5.69-4.1h5.36a6 6 0 0 1 5.69 4.1l.63 1.9h1a4 4 0 0 0 4-4v-18a4 4 0 0 0 -4-4zm-10 16a5 5 0 1 1 5-5 5 5 0 0 1 -5 5z" fill="#d5eafe"></path><circle cx="16" cy="14" fill="#ffd98c" r="5"></circle><path d="m25 29h-18l.63-1.9a6 6 0 0 1 5.69-4.1h5.36a6 6 0 0 1 5.69 4.1z" fill="#fb8890"></path></g><g id="Layer_2" data-name="Layer 2"><path d="m26 2h-20a5.006 5.006 0 0 0 -5 5v18a5.006 5.006 0 0 0 5 5h20a5.006 5.006 0 0 0 5-5v-18a5.006 5.006 0 0 0 -5-5zm-17.613 26 .194-.581a4.994 4.994 0 0 1 4.744-3.419h5.35a4.994 4.994 0 0 1 4.744 3.419l.194.581zm20.613-3a3 3 0 0 1 -3 3h-.279l-.405-1.214a6.992 6.992 0 0 0 -6.641-4.786h-5.35a6.992 6.992 0 0 0 -6.641 4.786l-.405 1.214h-.279a3 3 0 0 1 -3-3v-18a3 3 0 0 1 3-3h20a3 3 0 0 1 3 3z"></path><path d="m16 8a6 6 0 1 0 6 6 6.006 6.006 0 0 0 -6-6zm0 10a4 4 0 1 1 4-4 4 4 0 0 1 -4 4z"></path></g></svg>