<svg width="196" height="32" viewBox="0 0 196 32" fill="none" xmlns="http://www.w3.org/2000/svg">
    <path d="M15.0483 2.95106C15.3463 2.02697 16.6537 2.02697 16.9517 2.95105L19.3497 10.3865C19.4832 10.8004 19.8688 11.0805 20.3036 11.0796L28.1162 11.0625C29.0871 11.0604 29.4911 12.3038 28.7044 12.8728L22.3739 17.4511C22.0215 17.7059 21.8742 18.1592 22.0095 18.5725L24.4399 25.9974C24.742 26.9202 23.6843 27.6887 22.9 27.1162L16.5896 22.5103C16.2383 22.2539 15.7617 22.2539 15.4104 22.5103L9.09999 27.1162C8.31572 27.6887 7.258 26.9202 7.56006 25.9974L9.99051 18.5725C10.1258 18.1592 9.9785 17.7059 9.62615 17.4511L3.29562 12.8728C2.50885 12.3038 2.91287 11.0604 3.88382 11.0625L11.6964 11.0796C12.1312 11.0805 12.5168 10.8004 12.6503 10.3865L15.0483 2.95106Z" fill="#750DC5"/>
    <path d="M56.0483 2.95106C56.3463 2.02697 57.6537 2.02697 57.9517 2.95105L60.3497 10.3865C60.4832 10.8004 60.8688 11.0805 61.3036 11.0796L69.1162 11.0625C70.0871 11.0604 70.4911 12.3038 69.7044 12.8728L63.3738 17.4511C63.0215 17.7059 62.8742 18.1592 63.0095 18.5725L65.4399 25.9974C65.742 26.9202 64.6843 27.6887 63.9 27.1162L57.5896 22.5103C57.2383 22.2539 56.7617 22.2539 56.4104 22.5103L50.1 27.1162C49.3157 27.6887 48.258 26.9202 48.5601 25.9974L50.9905 18.5725C51.1258 18.1592 50.9785 17.7059 50.6261 17.4511L44.2956 12.8728C43.5089 12.3038 43.9129 11.0604 44.8838 11.0625L52.6964 11.0796C53.1312 11.0805 53.5168 10.8004 53.6503 10.3865L56.0483 2.95106Z" fill="#750DC5"/>
    <path d="M97.0483 2.95106C97.3463 2.02697 98.6537 2.02697 98.9517 2.95105L101.35 10.3865C101.483 10.8004 101.869 11.0805 102.304 11.0796L110.116 11.0625C111.087 11.0604 111.491 12.3038 110.704 12.8728L104.374 17.4511C104.022 17.7059 103.874 18.1592 104.009 18.5725L106.44 25.9974C106.742 26.9202 105.684 27.6887 104.9 27.1162L98.5896 22.5103C98.2383 22.2539 97.7617 22.2539 97.4104 22.5103L91.1 27.1162C90.3157 27.6887 89.258 26.9202 89.5601 25.9974L91.9905 18.5725C92.1258 18.1592 91.9785 17.7059 91.6261 17.4511L85.2956 12.8728C84.5089 12.3038 84.9129 11.0604 85.8838 11.0625L93.6964 11.0796C94.1312 11.0805 94.5168 10.8004 94.6503 10.3865L97.0483 2.95106Z" fill="#750DC5"/>
    <path d="M138.048 2.95106C138.346 2.02697 139.654 2.02697 139.952 2.95105L142.35 10.3865C142.483 10.8004 142.869 11.0805 143.304 11.0796L151.116 11.0625C152.087 11.0604 152.491 12.3038 151.704 12.8728L145.374 17.4511C145.022 17.7059 144.874 18.1592 145.009 18.5725L147.44 25.9974C147.742 26.9202 146.684 27.6887 145.9 27.1162L139.59 22.5103C139.238 22.2539 138.762 22.2539 138.41 22.5103L132.1 27.1162C131.316 27.6887 130.258 26.9202 130.56 25.9974L132.991 18.5725C133.126 18.1592 132.978 17.7059 132.626 17.4511L126.296 12.8728C125.509 12.3038 125.913 11.0604 126.884 11.0625L134.696 11.0796C135.131 11.0805 135.517 10.8004 135.65 10.3865L138.048 2.95106Z" fill="#750DC5"/>
    <path d="M179.048 2.95106C179.346 2.02697 180.654 2.02697 180.952 2.95105L183.35 10.3865C183.483 10.8004 183.869 11.0805 184.304 11.0796L192.116 11.0625C193.087 11.0604 193.491 12.3038 192.704 12.8728L186.374 17.4511C186.022 17.7059 185.874 18.1592 186.009 18.5725L188.44 25.9974C188.742 26.9202 187.684 27.6887 186.9 27.1162L180.59 22.5103C180.238 22.2539 179.762 22.2539 179.41 22.5103L173.1 27.1162C172.316 27.6887 171.258 26.9202 171.56 25.9974L173.991 18.5725C174.126 18.1592 173.978 17.7059 173.626 17.4511L167.296 12.8728C166.509 12.3038 166.913 11.0604 167.884 11.0625L175.696 11.0796C176.131 11.0805 176.517 10.8004 176.65 10.3865L179.048 2.95106Z" fill="#750DC5"/>
</svg>
